<svg width="19" height="17" viewBox="0 0 19 17" fill="none" xmlns="http://www.w3.org/2000/svg">
<path fill-rule="evenodd" clip-rule="evenodd" d="M11.5683 6.77204C11.5683 8.60006 9.88585 10.4852 7.29257 10.4852C4.69929 10.4852 3.01685 8.60006 3.01685 6.77204C3.01685 4.94402 4.69929 3.05884 7.29257 3.05884C9.88585 3.05884 11.5683 4.94402 11.5683 6.77204ZM11.193 12.4401C10.0657 13.1019 8.72766 13.4852 7.29257 13.4852C3.2743 13.4852 0.0168457 10.4796 0.0168457 6.77204C0.0168457 3.06444 3.2743 0.0588379 7.29257 0.0588379C11.3108 0.0588379 14.5683 3.06444 14.5683 6.77204C14.5683 8.11406 14.1415 9.36411 13.4063 10.4129L18.1254 14.7847L15.9246 16.8235L11.193 12.4401Z" fill="#2B2B2B"/>
</svg>
