<svg width="36" height="36" viewBox="0 0 36 36" fill="none" xmlns="http://www.w3.org/2000/svg">
<path fill-rule="evenodd" clip-rule="evenodd" d="M18.71 2.29L33.71 17.29L33.7 17.3C34.0397 17.6968 34.0169 18.2882 33.6475 18.6576C33.2782 19.0269 32.6867 19.0498 32.29 18.71L18 4.41L3.70997 18.7C3.31321 19.0398 2.72178 19.0169 2.35241 18.6476C1.98304 18.2782 1.96019 17.6868 2.29997 17.29L17.3 2.29C17.69 1.90228 18.3199 1.90228 18.71 2.29ZM23 32H28V17.76L30 19.76V32C30 33.1046 29.1045 34 28 34H21V24H15V34H7.99997C6.8954 34 5.99997 33.1046 5.99997 32V20L7.99997 18V32H13V22H23V32Z" fill="#737373"/>
</svg>
