<svg width="36" height="36" viewBox="0 0 36 36" fill="none" xmlns="http://www.w3.org/2000/svg">
<path fill-rule="evenodd" clip-rule="evenodd" d="M30 4H6C4.89543 4 4 4.89543 4 6V30C4 31.1046 4.89543 32 6 32H30C31.1046 32 32 31.1046 32 30V6C32 4.89543 31.1046 4 30 4ZM26 7H28V10H26V7ZM10 26H8V29H10V26ZM14 26H16V29H14V26ZM22 26H20V29H22V26ZM28 26H26V29H28V26ZM22 7H20V10H22V7ZM14 7H16V10H14V7ZM10 7H8V10H10V7ZM14.6 23.07C14.9707 23.3103 15.4385 23.3443 15.84 23.16L24.57 19.16C25.0359 18.9498 25.3354 18.4861 25.3354 17.975C25.3354 17.4639 25.0359 17.0002 24.57 16.79L15.84 12.79C15.4331 12.6041 14.9592 12.6404 14.5854 12.8862C14.2116 13.132 13.9905 13.5527 14 14V22C14.0068 22.435 14.2324 22.8373 14.6 23.07ZM23.31 18L15.6 14.47V21.51L23.31 18ZM6 30H30V6H6V30Z" fill="#737373"/>
</svg>
