<svg width="36" height="36" viewBox="0 0 36 36" fill="none" xmlns="http://www.w3.org/2000/svg">
<path fill-rule="evenodd" clip-rule="evenodd" d="M35.77 8.15998C35.6132 7.16359 34.8571 6.36771 33.87 6.15998L28 4.86998C26.7264 4.5922 25.3948 4.8804 24.35 5.65998L7.00002 18.3L2.14002 18.1C1.33874 18.0713 0.609263 18.5593 0.329975 19.3109C0.050687 20.0625 0.284457 20.9084 0.910025 21.41L5.91002 25.34C6.51002 26.07 6.91002 25.93 16.84 20.52L17.77 29.94C17.8016 30.4645 18.1325 30.9239 18.62 31.12C18.7919 31.1879 18.9753 31.2218 19.16 31.22C19.5319 31.2086 19.8872 31.063 20.16 30.81L22.55 28.63C22.788 28.4095 22.9492 28.1186 23.01 27.8L25.2 15.9C26.2675 15.302 27.318 14.7147 28.3306 14.1485C30.7046 12.8213 32.8706 11.6103 34.56 10.65C35.4429 10.1533 35.9251 9.16106 35.77 8.15998ZM33.57 8.90998L33.3818 9.01688L33.3815 9.01705C30.8957 10.4291 27.4764 12.3712 23.81 14.38L23.4 14.61L21.07 27.28L19.6 28.62L18.5 17.32L17.17 18C10 22 7.61002 23.16 6.79002 23.52L2.49002 20.11L7.57002 20.33L25.57 7.26998C26.1423 6.84217 26.8697 6.67849 27.57 6.81998L33.42 8.07998C33.605 8.11353 33.7468 8.26339 33.77 8.44998C33.8123 8.63066 33.731 8.81766 33.57 8.90998ZM10.56 13.54L7.00002 12.54C6.49991 12.4098 6.12712 11.9917 6.05496 11.48C5.98279 10.9683 6.22541 10.4634 6.67002 10.2L9.30002 8.66998C9.51162 8.54585 9.75506 8.48673 10 8.49998L17.77 8.25998L15.47 9.92998L10 10.09L8.20002 11.19L12.2 12.35L10.56 13.54Z" fill="#737373"/>
</svg>
