<svg width="31" height="25" viewBox="0 0 31 25" fill="none" xmlns="http://www.w3.org/2000/svg">
<path d="M10.0413 25C21.5775 25 27.889 15.3808 27.889 7.04153C27.889 6.7711 27.883 6.49467 27.8711 6.22425C29.0989 5.33082 30.1585 4.22419 31 2.95634C29.8565 3.46825 28.6425 3.80257 27.3993 3.94789C28.7083 3.1584 29.6884 1.91814 30.1579 0.457033C28.9265 1.19135 27.5798 1.70935 26.1756 1.98883C25.2294 0.977263 23.9784 0.307487 22.616 0.0830526C21.2537 -0.141382 19.8557 0.0920259 18.6384 0.747189C17.4211 1.40235 16.4521 2.44278 15.8814 3.70761C15.3106 4.97244 15.1699 6.39124 15.4809 7.74463C12.9875 7.61872 10.5481 6.96697 8.32106 5.83162C6.094 4.69627 4.12892 3.10267 2.55321 1.15412C1.75236 2.54347 1.50729 4.18751 1.86783 5.75213C2.22837 7.31674 3.16745 8.68453 4.49422 9.57749C3.49816 9.54567 2.52392 9.27583 1.65199 8.79026V8.86838C1.6511 10.3264 2.15204 11.7397 3.06966 12.8681C3.98728 13.9965 5.26494 14.7703 6.68547 15.0581C5.76277 15.3121 4.79437 15.3491 3.85518 15.1662C4.25603 16.4201 5.03592 17.5168 6.08603 18.3033C7.13614 19.0897 8.40406 19.5266 9.71284 19.5531C7.49092 21.3093 4.7462 22.2618 1.92075 22.2573C1.41967 22.2565 0.919098 22.2256 0.421692 22.1648C3.29205 24.0177 6.63104 25.0018 10.0413 25Z" fill="#D9D9D9"/>
</svg>
