<svg width="36" height="25" viewBox="0 0 36 25" fill="none" xmlns="http://www.w3.org/2000/svg">
<path d="M35.4338 5.39433C35.4338 5.39433 35.0854 2.94363 34.0124 1.86754C32.6537 0.451264 31.1347 0.444321 30.4379 0.361011C25.4491 -1.98627e-07 17.9588 0 17.9588 0H17.9448C17.9448 0 10.4545 -1.98627e-07 5.46565 0.361011C4.76887 0.444321 3.24991 0.451264 1.89121 1.86754C0.81818 2.94363 0.476762 5.39433 0.476762 5.39433C0.476762 5.39433 0.114441 8.27548 0.114441 11.1497V13.8434C0.114441 16.7176 0.469794 19.5987 0.469794 19.5987C0.469794 19.5987 0.81818 22.0494 1.88424 23.1255C3.24294 24.5418 5.02668 24.4932 5.821 24.6459C8.67776 24.9167 17.9518 25 17.9518 25C17.9518 25 25.4491 24.9861 30.4379 24.632C31.1347 24.5487 32.6537 24.5418 34.0124 23.1255C35.0854 22.0494 35.4338 19.5987 35.4338 19.5987C35.4338 19.5987 35.7891 16.7245 35.7891 13.8434V11.1497C35.7891 8.27548 35.4338 5.39433 35.4338 5.39433ZM14.2659 17.1133V7.12302L23.9022 12.1355L14.2659 17.1133Z" fill="#D9D9D9"/>
</svg>
