<svg width="26" height="25" viewBox="0 0 26 25" fill="none" xmlns="http://www.w3.org/2000/svg">
<path d="M12.741 2.25098C16.1452 2.25098 16.5483 2.26562 17.8871 2.32422C19.1314 2.37793 19.8032 2.58301 20.2512 2.75391C20.8434 2.97852 21.2714 3.25195 21.7144 3.68652C22.1623 4.12598 22.436 4.54102 22.665 5.12207C22.8392 5.56152 23.0482 6.22559 23.103 7.44141C23.1627 8.75976 23.1776 9.15527 23.1776 12.4902C23.1776 15.8301 23.1627 16.2256 23.103 17.5391C23.0482 18.7598 22.8392 19.4189 22.665 19.8584C22.436 20.4395 22.1573 20.8594 21.7144 21.2939C21.2665 21.7334 20.8434 22.002 20.2512 22.2266C19.8032 22.3975 19.1264 22.6025 17.8871 22.6562C16.5433 22.7148 16.1402 22.7295 12.741 22.7295C9.33674 22.7295 8.93361 22.7148 7.59481 22.6562C6.35057 22.6025 5.67869 22.3975 5.23076 22.2266C4.63851 22.002 4.21049 21.7285 3.76754 21.2939C3.31962 20.8545 3.04589 20.4395 2.81695 19.8584C2.64275 19.4189 2.43372 18.7549 2.37898 17.5391C2.31925 16.2207 2.30432 15.8252 2.30432 12.4902C2.30432 9.15039 2.31925 8.75488 2.37898 7.44141C2.43372 6.2207 2.64275 5.56152 2.81695 5.12207C3.04589 4.54102 3.3246 4.12109 3.76754 3.68652C4.21547 3.24707 4.63851 2.97852 5.23076 2.75391C5.67869 2.58301 6.35555 2.37793 7.59481 2.32422C8.93361 2.26562 9.33674 2.25098 12.741 2.25098ZM12.741 0C9.28199 0 8.849 0.0146484 7.49029 0.0732422C6.13657 0.131836 5.20588 0.34668 4.39961 0.654297C3.55851 0.976562 2.84681 1.40137 2.14008 2.09961C1.42838 2.79297 0.995388 3.49121 0.66691 4.31152C0.353363 5.10742 0.134377 6.01562 0.0746541 7.34375C0.0149308 8.68164 0 9.10644 0 12.5C0 15.8936 0.0149308 16.3184 0.0746541 17.6514C0.134377 18.9795 0.353363 19.8926 0.66691 20.6836C0.995388 21.5088 1.42838 22.207 2.14008 22.9004C2.84681 23.5937 3.55851 24.0234 4.39464 24.3408C5.20588 24.6484 6.13159 24.8633 7.48532 24.9219C8.84402 24.9805 9.27701 24.9951 12.736 24.9951C16.195 24.9951 16.628 24.9805 17.9867 24.9219C19.3404 24.8633 20.2711 24.6484 21.0773 24.3408C21.9135 24.0234 22.6252 23.5937 23.3319 22.9004C24.0386 22.207 24.4766 21.5088 24.8001 20.6885C25.1136 19.8926 25.3326 18.9844 25.3923 17.6563C25.4521 16.3232 25.467 15.8984 25.467 12.5049C25.467 9.11133 25.4521 8.68652 25.3923 7.35352C25.3326 6.02539 25.1136 5.1123 24.8001 4.32129C24.4865 3.49121 24.0535 2.79297 23.3418 2.09961C22.6351 1.40625 21.9234 0.976562 21.0873 0.65918C20.2761 0.351562 19.3503 0.136719 17.9966 0.078125C16.6329 0.0146484 16.1999 0 12.741 0Z" fill="#D9D9D9"/>
<path d="M12.741 6.0791C9.12771 6.0791 6.19629 8.95508 6.19629 12.5C6.19629 16.0449 9.12771 18.9209 12.741 18.9209C16.3542 18.9209 19.2856 16.0449 19.2856 12.5C19.2856 8.95508 16.3542 6.0791 12.741 6.0791ZM12.741 16.665C10.3968 16.665 8.49563 14.7998 8.49563 12.5C8.49563 10.2002 10.3968 8.33496 12.741 8.33496C15.0851 8.33496 16.9863 10.2002 16.9863 12.5C16.9863 14.7998 15.0851 16.665 12.741 16.665Z" fill="#D9D9D9"/>
<path d="M21.0723 5.8252C21.0723 6.65528 20.3855 7.32422 19.5444 7.32422C18.6984 7.32422 18.0165 6.65039 18.0165 5.8252C18.0165 4.99512 18.7033 4.32617 19.5444 4.32617C20.3855 4.32617 21.0723 5 21.0723 5.8252Z" fill="#D9D9D9"/>
</svg>
