<svg width="36" height="36" viewBox="0 0 36 36" fill="none" xmlns="http://www.w3.org/2000/svg">
<path fill-rule="evenodd" clip-rule="evenodd" d="M22.54 9.43999C23.7263 10.2723 24.5097 11.5634 24.7 13C24.88 14.41 24.61 17.79 18.57 19.17V21.86C18.57 22.4123 18.1223 22.86 17.57 22.86C17.0177 22.86 16.57 22.4123 16.57 21.86V17.5L17.39 17.35C19.52 16.96 23.04 15.9 22.71 13.21C22.585 12.3237 22.0956 11.5299 21.36 11.02C20.1363 10.2062 18.6293 9.93812 17.2 10.28C15.7706 10.5384 14.4213 11.1274 13.26 12C12.8292 12.3479 12.1979 12.2808 11.85 11.85C11.5021 11.4192 11.5692 10.7879 12 10.44C13.4238 9.3742 15.0784 8.65825 16.83 8.34999C18.8021 7.90221 20.8715 8.29725 22.54 9.43999ZM18.98 26.23C18.98 27.0032 18.3532 27.63 17.58 27.63C16.8068 27.63 16.18 27.0032 16.18 26.23C16.18 25.4568 16.8068 24.83 17.58 24.83C18.3532 24.83 18.98 25.4568 18.98 26.23Z" fill="#737373"/>
</svg>
