<svg width="36" height="36" viewBox="0 0 36 36" fill="none" xmlns="http://www.w3.org/2000/svg">
<path fill-rule="evenodd" clip-rule="evenodd" d="M31.3 16.66C30.11 14.57 23.36 2.51002 23.36 2.51002C23.1839 2.1917 22.8488 1.99414 22.485 1.99414C22.1212 1.99414 21.7861 2.1917 21.61 2.51002L15.61 13.15L12.61 7.87002C12.4339 7.5517 12.0988 7.35414 11.735 7.35414C11.3712 7.35414 11.0361 7.5517 10.86 7.87002C10.86 7.87002 5.4 17.78 4.42 19.5C3.46071 21.0294 2.96731 22.805 3 24.61C3 29.72 5.86 34 11.67 34H22.48C28.28 34 33 29 33 22.78C33.0398 20.6182 32.4491 18.4916 31.3 16.66ZM22.48 32H11.77C8.13 32 5 28.66 5 24.61C4.97219 23.1492 5.37568 21.7127 6.16 20.48C6.89 19.19 10.21 13.27 11.81 10.41L14.81 15.69C14.9868 16.0045 15.3192 16.1994 15.68 16.2C16.0408 16.1994 16.3732 16.0045 16.55 15.69L22.49 5.00002C24.35 8.33002 28.64 16 29.56 17.6C30.5428 19.1458 31.0441 20.9488 31 22.78C31 27.87 27.18 32 22.48 32ZM21.37 13.92C21.37 13.92 25.1 20.57 25.75 21.73L25.73 21.76C26.3925 22.8065 26.7396 24.0215 26.73 25.26C26.7315 26.5925 26.3345 27.895 25.59 29H23.46C24.52 28.0537 25.1272 26.701 25.13 25.28C25.1483 24.3202 24.8803 23.3768 24.36 22.57L20.67 16L17 22.52C16.8515 22.7788 16.718 23.0459 16.6 23.32C16.4843 23.5932 16.2268 23.78 15.9312 23.8052C15.6355 23.8303 15.3502 23.6898 15.19 23.44L13.53 20.84L10.73 25.22C10.3547 25.7176 10.1575 26.3269 10.17 26.95C10.188 27.6968 10.484 28.4099 11 28.95H9.05C8.73047 28.3312 8.55929 27.6464 8.55 26.95C8.53768 26.0179 8.82513 25.1064 9.37 24.35L12.83 18.91C12.9768 18.6792 13.2314 18.5394 13.505 18.5394C13.7786 18.5394 14.0332 18.6792 14.18 18.91L15.77 21.4L19.97 13.92C20.1109 13.6654 20.379 13.5073 20.67 13.5073C20.961 13.5073 21.2291 13.6654 21.37 13.92Z" fill="#737373"/>
</svg>
