<svg width="36" height="36" viewBox="0 0 36 36" fill="none" xmlns="http://www.w3.org/2000/svg">
<path d="M25 12V9.05005C25 6.54919 23.6658 4.2383 21.5 2.98787C19.3342 1.73744 16.6658 1.73744 14.5 2.98787C12.3342 4.2383 11 6.54919 11 9.05005V16.05C11 16.6023 11.4477 17.05 12 17.05C12.5523 17.05 13 16.6023 13 16.05V14H21V12H13V9.05005C13 6.28863 15.2386 4.05005 18 4.05005C20.7614 4.05005 23 6.28863 23 9.05005V16C23 16.5523 23.4477 17 24 17C24.5523 17 25 16.5523 25 16V14H30V32H6V14H9V12H4V32.09C4 33.1449 4.85514 34 5.91 34H30.09C31.1449 34 32 33.1449 32 32.09V12H25Z" fill="#737373"/>
</svg>
