<svg width="36" height="36" viewBox="0 0 36 36" fill="none" xmlns="http://www.w3.org/2000/svg">
<path fill-rule="evenodd" clip-rule="evenodd" d="M18 4C10.1342 4.14781 3.87179 10.6338 3.99998 18.5V32H9.19998C10.7096 32.0335 11.9618 30.8395 12 29.33V22.67C11.9618 21.1605 10.7096 19.9665 9.19998 20H5.99998V18.5C5.8716 11.7383 11.2387 6.1476 18 6C24.7613 6.1476 30.1284 11.7383 30 18.5V20H26.8C25.2904 19.9665 24.0382 21.1605 24 22.67V29.34C24.0436 30.8455 25.2942 32.0336 26.8 32H32V18.5C32.1282 10.6338 25.8658 4.14781 18 4ZM9.19998 22C9.60377 21.9708 9.95785 22.2674 9.99998 22.67V29.34C9.95785 29.7426 9.60377 30.0392 9.19998 30.01H5.99998V22H9.19998ZM26 22.67V29.33C26.0421 29.7326 26.3962 30.0292 26.8 30H30V22H26.8C26.3962 21.9708 26.0421 22.2674 26 22.67Z" fill="#737373"/>
</svg>
